# 3ds Max Wavefront OBJ Exporter v0.97b - (c)2007 guruware
# 创建的文件:07.12.2017 14:52:56

#
# object Cylinder001
#

v  0.0100 0.4000 -0.0000
v  0.0100 0.0000 -0.0000
v  0.0094 0.0000 -0.0034
v  0.0094 0.4000 -0.0034
v  0.0077 0.0000 -0.0064
v  0.0077 0.4000 -0.0064
v  0.0050 0.0000 -0.0087
v  0.0050 0.4000 -0.0087
v  0.0017 0.0000 -0.0099
v  0.0017 0.4000 -0.0099
v  -0.0017 0.0000 -0.0099
v  -0.0017 0.4000 -0.0099
v  -0.0050 0.0000 -0.0087
v  -0.0050 0.4000 -0.0087
v  -0.0077 0.0000 -0.0064
v  -0.0077 0.4000 -0.0064
v  -0.0094 0.0000 -0.0034
v  -0.0094 0.4000 -0.0034
v  -0.0100 0.0000 -0.0000
v  -0.0100 0.4000 -0.0000
v  -0.0094 0.0000 0.0034
v  -0.0094 0.4000 0.0034
v  -0.0077 0.0000 0.0064
v  -0.0077 0.4000 0.0064
v  -0.0050 0.0000 0.0087
v  -0.0050 0.4000 0.0087
v  -0.0017 0.0000 0.0099
v  -0.0017 0.4000 0.0099
v  0.0017 0.0000 0.0099
v  0.0017 0.4000 0.0099
v  0.0050 0.0000 0.0087
v  0.0050 0.4000 0.0087
v  0.0077 0.0000 0.0064
v  0.0077 0.4000 0.0064
v  0.0094 0.0000 0.0034
v  0.0094 0.4000 0.0034
v  0.0100 0.8000 -0.0000
v  0.0094 0.8000 -0.0034
v  0.0077 0.8000 -0.0064
v  0.0050 0.8000 -0.0087
v  0.0017 0.8000 -0.0099
v  -0.0017 0.8000 -0.0099
v  -0.0050 0.8000 -0.0087
v  -0.0077 0.8000 -0.0064
v  -0.0094 0.8000 -0.0034
v  -0.0100 0.8000 -0.0000
v  -0.0094 0.8000 0.0034
v  -0.0077 0.8000 0.0064
v  -0.0050 0.8000 0.0087
v  -0.0017 0.8000 0.0099
v  0.0017 0.8000 0.0099
v  0.0050 0.8000 0.0087
v  0.0077 0.8000 0.0064
v  0.0094 0.8000 0.0034
v  0.0100 1.2000 -0.0000
v  0.0094 1.2000 -0.0034
v  0.0077 1.2000 -0.0064
v  0.0050 1.2000 -0.0087
v  0.0017 1.2000 -0.0099
v  -0.0017 1.2000 -0.0099
v  -0.0050 1.2000 -0.0087
v  -0.0077 1.2000 -0.0064
v  -0.0094 1.2000 -0.0034
v  -0.0100 1.2000 -0.0000
v  -0.0094 1.2000 0.0034
v  -0.0077 1.2000 0.0064
v  -0.0050 1.2000 0.0087
v  -0.0017 1.2000 0.0099
v  0.0017 1.2000 0.0099
v  0.0050 1.2000 0.0087
v  0.0077 1.2000 0.0064
v  0.0094 1.2000 0.0034
v  0.0100 1.6000 -0.0000
v  0.0094 1.6000 -0.0034
v  0.0077 1.6000 -0.0064
v  0.0050 1.6000 -0.0087
v  0.0017 1.6000 -0.0099
v  -0.0017 1.6000 -0.0099
v  -0.0050 1.6000 -0.0087
v  -0.0077 1.6000 -0.0064
v  -0.0094 1.6000 -0.0034
v  -0.0100 1.6000 -0.0000
v  -0.0094 1.6000 0.0034
v  -0.0077 1.6000 0.0064
v  -0.0050 1.6000 0.0087
v  -0.0017 1.6000 0.0099
v  0.0017 1.6000 0.0099
v  0.0050 1.6000 0.0087
v  0.0077 1.6000 0.0064
v  0.0094 1.6000 0.0034
v  0.0100 2.0000 -0.0000
v  0.0094 2.0000 -0.0034
v  0.0077 2.0000 -0.0064
v  0.0050 2.0000 -0.0087
v  0.0017 2.0000 -0.0099
v  -0.0017 2.0000 -0.0099
v  -0.0050 2.0000 -0.0087
v  -0.0077 2.0000 -0.0064
v  -0.0094 2.0000 -0.0034
v  -0.0100 2.0000 -0.0000
v  -0.0094 2.0000 0.0034
v  -0.0077 2.0000 0.0064
v  -0.0050 2.0000 0.0087
v  -0.0017 2.0000 0.0099
v  0.0017 2.0000 0.0099
v  0.0050 2.0000 0.0087
v  0.0077 2.0000 0.0064
v  0.0094 2.0000 0.0034
# 108 vertices

vn 1.0000 0.0000 -0.0000
vn 0.9397 0.0000 -0.3420
vn 0.7660 0.0000 -0.6428
vn 0.5000 0.0000 -0.8660
vn 0.1736 0.0000 -0.9848
vn -0.1736 0.0000 -0.9848
vn -0.5000 0.0000 -0.8660
vn -0.7660 0.0000 -0.6428
vn -0.9397 0.0000 -0.3420
vn -1.0000 0.0000 -0.0000
vn -0.9397 0.0000 0.3420
vn -0.7660 0.0000 0.6428
vn -0.5000 0.0000 0.8660
vn -0.1736 0.0000 0.9848
vn 0.1736 0.0000 0.9848
vn 0.5000 0.0000 0.8660
vn 0.7660 0.0000 0.6428
vn 0.9397 0.0000 0.3420
vn 0.0000 -1.0000 -0.0000
vn 0.0000 1.0000 -0.0000
# 20 vertex normals

g Cylinder001
s 8
f 1//1 2//1 3//2 
f 3//2 4//2 1//1 
f 4//2 3//2 5//3 
f 5//3 6//3 4//2 
f 6//3 5//3 7//4 
f 7//4 8//4 6//3 
f 8//4 7//4 9//5 
f 9//5 10//5 8//4 
f 10//5 9//5 11//6 
f 11//6 12//6 10//5 
f 12//6 11//6 13//7 
f 13//7 14//7 12//6 
f 14//7 13//7 15//8 
f 15//8 16//8 14//7 
f 16//8 15//8 17//9 
f 17//9 18//9 16//8 
f 18//9 17//9 19//10 
f 19//10 20//10 18//9 
f 20//10 19//10 21//11 
f 21//11 22//11 20//10 
f 22//11 21//11 23//12 
f 23//12 24//12 22//11 
f 24//12 23//12 25//13 
f 25//13 26//13 24//12 
f 26//13 25//13 27//14 
f 27//14 28//14 26//13 
f 28//14 27//14 29//15 
f 29//15 30//15 28//14 
f 30//15 29//15 31//16 
f 31//16 32//16 30//15 
f 32//16 31//16 33//17 
f 33//17 34//17 32//16 
f 34//17 33//17 35//18 
f 35//18 36//18 34//17 
f 36//18 35//18 2//1 
f 2//1 1//1 36//18 
f 37//1 1//1 4//2 
f 4//2 38//2 37//1 
f 38//2 4//2 6//3 
f 6//3 39//3 38//2 
f 39//3 6//3 8//4 
f 8//4 40//4 39//3 
f 40//4 8//4 10//5 
f 10//5 41//5 40//4 
f 41//5 10//5 12//6 
f 12//6 42//6 41//5 
f 42//6 12//6 14//7 
f 14//7 43//7 42//6 
f 43//7 14//7 16//8 
f 16//8 44//8 43//7 
f 44//8 16//8 18//9 
f 18//9 45//9 44//8 
f 45//9 18//9 20//10 
f 20//10 46//10 45//9 
f 46//10 20//10 22//11 
f 22//11 47//11 46//10 
f 47//11 22//11 24//12 
f 24//12 48//12 47//11 
f 48//12 24//12 26//13 
f 26//13 49//13 48//12 
f 49//13 26//13 28//14 
f 28//14 50//14 49//13 
f 50//14 28//14 30//15 
f 30//15 51//15 50//14 
f 51//15 30//15 32//16 
f 32//16 52//16 51//15 
f 52//16 32//16 34//17 
f 34//17 53//17 52//16 
f 53//17 34//17 36//18 
f 36//18 54//18 53//17 
f 54//18 36//18 1//1 
f 1//1 37//1 54//18 
f 55//1 37//1 38//2 
f 38//2 56//2 55//1 
f 56//2 38//2 39//3 
f 39//3 57//3 56//2 
f 57//3 39//3 40//4 
f 40//4 58//4 57//3 
f 58//4 40//4 41//5 
f 41//5 59//5 58//4 
f 59//5 41//5 42//6 
f 42//6 60//6 59//5 
f 60//6 42//6 43//7 
f 43//7 61//7 60//6 
f 61//7 43//7 44//8 
f 44//8 62//8 61//7 
f 62//8 44//8 45//9 
f 45//9 63//9 62//8 
f 63//9 45//9 46//10 
f 46//10 64//10 63//9 
f 64//10 46//10 47//11 
f 47//11 65//11 64//10 
f 65//11 47//11 48//12 
f 48//12 66//12 65//11 
f 66//12 48//12 49//13 
f 49//13 67//13 66//12 
f 67//13 49//13 50//14 
f 50//14 68//14 67//13 
f 68//14 50//14 51//15 
f 51//15 69//15 68//14 
f 69//15 51//15 52//16 
f 52//16 70//16 69//15 
f 70//16 52//16 53//17 
f 53//17 71//17 70//16 
f 71//17 53//17 54//18 
f 54//18 72//18 71//17 
f 72//18 54//18 37//1 
f 37//1 55//1 72//18 
f 73//1 55//1 56//2 
f 56//2 74//2 73//1 
f 74//2 56//2 57//3 
f 57//3 75//3 74//2 
f 75//3 57//3 58//4 
f 58//4 76//4 75//3 
f 76//4 58//4 59//5 
f 59//5 77//5 76//4 
f 77//5 59//5 60//6 
f 60//6 78//6 77//5 
f 78//6 60//6 61//7 
f 61//7 79//7 78//6 
f 79//7 61//7 62//8 
f 62//8 80//8 79//7 
f 80//8 62//8 63//9 
f 63//9 81//9 80//8 
f 81//9 63//9 64//10 
f 64//10 82//10 81//9 
f 82//10 64//10 65//11 
f 65//11 83//11 82//10 
f 83//11 65//11 66//12 
f 66//12 84//12 83//11 
f 84//12 66//12 67//13 
f 67//13 85//13 84//12 
f 85//13 67//13 68//14 
f 68//14 86//14 85//13 
f 86//14 68//14 69//15 
f 69//15 87//15 86//14 
f 87//15 69//15 70//16 
f 70//16 88//16 87//15 
f 88//16 70//16 71//17 
f 71//17 89//17 88//16 
f 89//17 71//17 72//18 
f 72//18 90//18 89//17 
f 90//18 72//18 55//1 
f 55//1 73//1 90//18 
f 91//1 73//1 74//2 
f 74//2 92//2 91//1 
f 92//2 74//2 75//3 
f 75//3 93//3 92//2 
f 93//3 75//3 76//4 
f 76//4 94//4 93//3 
f 94//4 76//4 77//5 
f 77//5 95//5 94//4 
f 95//5 77//5 78//6 
f 78//6 96//6 95//5 
f 96//6 78//6 79//7 
f 79//7 97//7 96//6 
f 97//7 79//7 80//8 
f 80//8 98//8 97//7 
f 98//8 80//8 81//9 
f 81//9 99//9 98//8 
f 99//9 81//9 82//10 
f 82//10 100//10 99//9 
f 100//10 82//10 83//11 
f 83//11 101//11 100//10 
f 101//11 83//11 84//12 
f 84//12 102//12 101//11 
f 102//12 84//12 85//13 
f 85//13 103//13 102//12 
f 103//13 85//13 86//14 
f 86//14 104//14 103//13 
f 104//14 86//14 87//15 
f 87//15 105//15 104//14 
f 105//15 87//15 88//16 
f 88//16 106//16 105//15 
f 106//16 88//16 89//17 
f 89//17 107//17 106//16 
f 107//17 89//17 90//18 
f 90//18 108//18 107//17 
f 108//18 90//18 73//1 
f 73//1 91//1 108//18 
s 1
f 29//19 2//19 33//19 
f 33//19 31//19 29//19 
f 25//19 21//19 29//19 
f 29//19 27//19 25//19 
f 25//19 23//19 21//19 
f 17//19 13//19 21//19 
f 21//19 19//19 17//19 
f 17//19 15//19 13//19 
f 9//19 5//19 13//19 
f 13//19 11//19 9//19 
f 9//19 7//19 5//19 
f 29//19 21//19 13//19 
f 13//19 5//19 29//19 
f 2//19 29//19 5//19 
f 5//19 3//19 2//19 
f 35//19 33//19 2//19 
f 94//20 108//20 92//20 
f 92//20 93//20 94//20 
f 96//20 98//20 94//20 
f 94//20 95//20 96//20 
f 96//20 97//20 98//20 
f 100//20 102//20 98//20 
f 98//20 99//20 100//20 
f 100//20 101//20 102//20 
f 104//20 106//20 102//20 
f 102//20 103//20 104//20 
f 104//20 105//20 106//20 
f 94//20 98//20 102//20 
f 102//20 106//20 94//20 
f 108//20 94//20 106//20 
f 106//20 107//20 108//20 
f 91//20 92//20 108//20 
# 212 faces

